<?xml version="1.0" encoding="utf-8"?>
<!-- Generator: Adobe Illustrator 26.0.0, SVG Export Plug-In . SVG Version: 6.00 Build 0)  -->
<svg version="1.1" id="Calque_1" xmlns="http://www.w3.org/2000/svg" xmlns:xlink="http://www.w3.org/1999/xlink" x="0px" y="0px"
	 viewBox="0 0 550 550" style="enable-background:new 0 0 550 550;" xml:space="preserve">
<style type="text/css">
	.st0{fill:#BE8C44;}
	.st1{fill:#F8F8F8;}
	.st2{fill:#010101;}
</style>
<g>
	<path class="st0" d="M141.48,201.49c8.61-13.34,18.57-25.68,28.61-37.89c3.79-4.61,10.14-6.55,15.85-8.52
		c19.32-6.66,38.6-13.64,59.08-15.84c10.76-1.16,21.39-0.84,32.26,1.04c10.92,1.89,21.85,3.56,32.34,7.05
		c9.15,3.05,18.29,6.17,27.19,10.12c7.69,3.42,15.88,6.01,23.83,9.01c5.59,2.1,11.03,4.69,16.74,6.4c10.06,3,18.07,8.22,23.82,17.38
		c4.44,7.07,10.12,13.34,15.19,20.02c0.91,1.2,2.86,2.48,1.66,4.07c-1,1.33-3.03,0.47-4.55,0.13c-12.95-2.86-25.74-6.26-38.26-10.76
		c-22.04-7.91-43.68-16.88-65.96-24.12c-10.51-3.42-21.32-5.25-32.59-6.51c17.24,11.35,27.58,26.94,30.83,47.29
		c3.17,19.86-1.39,38-12.47,56.09c9.29-2.83,17.19-5.33,25.14-7.65c28.45-8.29,56.8-16.96,85.72-23.48
		c8.7-1.96,17.23-4.82,26.24-5.44c4.6-0.32,7.89,0.8,10.89,4.82c16.51,22.11,33.63,43.78,49.92,66.05
		c5.81,7.94,11.4,16.38,17.53,23.8c9.95,12.04,18.84,24.88,28.8,36.87c3.73,4.5,7.14,9.27,10.72,13.94
		c-1.15,1.39-2.46,0.88-3.59,0.88c-37.38,0.11-74.76,0.08-112.14,0.4c-5.28,0.04-5.32-1.49-3.78-5.63
		c6.32-16.97,11.3-34.2,9.2-52.69c-1.62-14.32-5.85-27.28-18.45-35.83c-20.18-13.7-48.06-2.95-54.07,20.81
		c-1.2,4.73-2.22,9.31-0.88,14.43c2.38,9.12,6.48,13.93,13.37,15.06c8.46,1.39,16.16-3.5,19.63-11.55c2.16-5,2.63-10.33,2.98-15.68
		c0.38-5.79,1.1-6.33,6.34-3.47c10.7,5.86,15.26,15.82,16.15,27.34c2.05,26.5-16.17,45.62-43.99,46.93
		c-21.63,1.02-40.99-5.91-59.41-16.54c-27.61-15.94-50.09-37.99-72.12-60.6c-10.77-11.05-21.92-21.74-31.56-33.88
		c-11.57-14.57-18.9-30.6-17.24-49.7c1.09-12.56,5.57-23.77,13.42-33.82c4.77-6.1,10.86-11.02,16.15-18.45
		c-12.5,4.07-23.77,7.71-35.03,11.41c-16.7,5.49-33.39,11.02-50.09,16.51c-0.99,0.33-2.07,0.39-3.1,0.58L141.48,201.49z
		 M237.98,229.61c-0.54,8.65,5.88,20.59,17.15,20.45c9.48-0.12,17.36-8.79,17.7-19.84c0.33-10.81-7.92-20.39-17.61-20.45
		C245.63,209.71,238.12,218.35,237.98,229.61z"/>
	<path class="st0" d="M0,386.16c6.9-9.07,13.2-17.39,19.53-25.69c31.15-40.85,62.35-81.66,93.38-122.59
		c2.82-3.72,5.35-5.09,10.16-4.07c23.88,5.09,43.18,17.66,59.67,35.3c15.44,16.53,31.33,32.64,46.63,49.31
		c21.51,23.44,45.72,43.74,70.81,63.08c1.64,1.26,3.19,2.65,5.61,4.66C203.59,386.16,102.46,386.16,0,386.16z"/>
	<path class="st0" d="M364.8,145.15c-5.76-2.24-11.16-4.24-16.48-6.43c-19.39-7.97-39-15.53-59.46-19.95
		c-19.05-4.11-38.44-4.02-57.56,0.9c-9.97,2.57-19.95,5.11-29.92,7.67c-1.19,0.31-2.35,0.9-4.08,0.09
		c7.16-9.43,14.23-18.77,21.34-28.09c17.73-23.24,35.55-46.41,53.12-69.77c2.66-3.53,3.96-3.31,6.43-0.03
		c20.31,26.82,40.73,53.55,61.13,80.3c7.63,10.01,15.29,20.01,22.9,30.04C363.25,141.23,364.79,142.34,364.8,145.15z"/>
	<path class="st1" d="M144.4,523.42c-6.88,0-13.23,0-20.01,0c3.16-6.13,2.54-12.58,2.56-18.96c0.03-10.72-0.02-21.43,0.03-32.15
		c0.01-2.13,0.1-3.7-2.93-3.63c-9.07,0.19-18.14,0.14-27.21,0.02c-2.41-0.03-3,0.9-2.99,3.14c0.08,13.75,0,27.51,0.08,41.26
		c0.02,3.56,1.48,6.88,2.54,10.42c-6.65,0-13.04,0-19.94,0c3.37-6.83,2.72-13.95,2.72-20.98c0.02-24.83-0.02-49.66,0.02-74.48
		c0.01-5.36-0.08-10.67-2.76-15.84c6.76,0,13.13,0,19.95,0c-2.15,5.5-2.78,11.15-2.62,16.95c0.06,2.28,0.73,3.15,3.08,3.13
		c9.07-0.1,18.14-0.12,27.21-0.01c2.54,0.03,2.89-1.16,2.86-3.26c-0.08-5.51,0.38-11.08-2.71-16.61c6.88,0,13.26,0,20.15,0
		c-3.26,6.31-2.66,12.96-2.66,19.53c-0.01,23.4-0.02,46.8,0,70.2C141.77,509.23,141,516.41,144.4,523.42z M110.43,453.88
		c4.42,0,8.85-0.13,13.26,0.05c2.45,0.1,3.53-0.43,3.33-3.16c-0.17-2.28,0.04-3.99-3.24-3.9c-8.84,0.23-17.68,0.19-26.52,0.03
		c-2.98-0.06-3.44,1.18-3.48,3.79c-0.04,2.67,0.95,3.32,3.39,3.24C101.59,453.77,106.01,453.88,110.43,453.88z"/>
	<path class="st1" d="M480.95,412.05c7.44,0,13.84,0.09,20.24-0.05c2.34-0.05,3.18,0.55,2.68,2.97c-0.56,2.73-0.02,5.39,1.6,7.66
		c8.23,11.6,16.53,23.15,25.43,34.59c-0.42-15,2.68-30.04-1.95-44.97c6.34,0,12.83,0,19.64,0c-2.59,5.18-2.57,10.51-2.56,15.88
		c0.04,26.63,0.04,53.25,0,79.88c-0.01,5.19-0.08,10.35,2.82,15.39c-6.99,0-13.5,0-20.01,0c4.52-12.63,1.9-25.74,2.49-38.62
		c0.04-0.94-0.57-2.03-1.16-2.85c-9.63-13.49-19.31-26.94-28.97-40.41c-0.43-0.6-0.91-1.08-1.73-0.94
		c-1.82,7.36-0.72,74.35,1.43,82.77c-6.48,0-12.89,0-19.72,0c2.99-5.68,2.85-11.57,2.86-17.43c0.01-25.91,0.04-51.82-0.02-77.74
		C483.99,422.85,484.14,417.45,480.95,412.05z"/>
	<path class="st1" d="M307.96,523.48c-8.18,0-15.45,0-23.3,0c2.83-6.83,0.66-12.88-1.69-19.09c-6.6-17.46-12.93-35.02-19.36-52.55
		c-0.43-1.17-0.83-2.35-1.27-3.51c-0.7-1.83-2.32-1.3-3.65-1.31c-1.95-0.02-1.57,1.54-1.57,2.7c0,21.79-0.06,43.58,0.13,65.37
		c0.02,2.73,1.31,5.44,2.07,8.36c-6.52,0-12.89,0-19.73,0c3.4-6.67,2.69-13.67,2.7-20.56c0.03-25,0.03-50.01,0-75.01
		c-0.01-5.15,0.26-10.36-2.99-15.63c15.54,0,30.35-0.01,45.15,0.03c0.68,0,1.35,0.41,2.03,0.61c8.74,2.58,13.11,9.16,12.08,18.18
		c-1,8.73-7.75,15.82-16.04,15.72c-5.4-0.07-5.07,1.49-3.5,5.64c6.39,16.78,12.56,33.65,18.53,50.59
		C300.05,510.08,303.53,516.56,307.96,523.48z M269.14,432.24c3.2,0,6.4-0.04,9.6,0.01c2.53,0.04,4.96-0.42,4.94-3.46
		c-0.02-3.16-2.67-3.3-5.08-3.3c-5.87-0.01-11.73,0.02-17.6-0.01c-2.21-0.01-4.03-0.22-4.02,3.18c0.01,3.38,1.45,3.8,4.17,3.62
		C263.8,432.1,266.47,432.24,269.14,432.24z"/>
	<path class="st1" d="M380.09,412.22c-2.55,4.75-2.79,9.2-2.8,13.66c-0.03,20.18-0.03,40.37,0.04,60.55
		c0.01,2.85-0.3,6.01,0.79,8.47c2.31,5.23,0.6,6.18-4.33,5.76c-4.38-0.37-8.82-0.08-13.89-0.08c3.31-6.42,2.65-12.84,2.81-19.19
		c0.07-2.64-0.53-3.85-3.5-3.78c-8,0.19-16.01,0.18-24.01,0c-2.53-0.06-3.3,0.9-3.79,3.2c-1.22,5.74-0.96,11.39,0.8,16.9
		c0.67,2.09,0.78,2.91-1.66,2.89c-5.81-0.05-11.62-0.02-18.23-0.02c3.78-6.54,3.68-13.13,4.76-19.55
		c4.64-27.69,16.24-51.17,41.97-65.29C365.45,412.23,372.37,411.16,380.09,412.22z M336.28,463.69c8.43,0,15.87-0.01,23.3,0.01
		c1.72,0.01,3.11-0.03,3.09-2.43c-0.07-10.59-0.03-21.19-0.03-32.82C349.27,437.25,342.17,449.33,336.28,463.69z"/>
	<path class="st1" d="M223.33,412.24c-2.69,4.58-2.73,9.03-2.72,13.49c0.02,19.47,0.01,38.93,0.01,58.4
		c0,5.32-0.44,10.69,2.89,16.44c-6.45,0-12.04,0-17.62,0c-1.76,0-2.78-0.4-1.78-2.5c2.64-5.58,1.42-11.58,1.75-17.41
		c0.14-2.37-0.78-3.06-3.07-3.03c-8.18,0.11-16.36,0.14-24.54,0c-2.55-0.04-3.14,1.02-3.67,3.32c-1.29,5.58-1,11.06,0.76,16.36
		c1,3,0.02,3.34-2.49,3.31c-5.48-0.08-10.97-0.02-17.13-0.02c3.15-6.23,3.57-12.48,4.46-18.76c3.37-23.69,12.94-44.38,31.98-59.68
		C200.97,415.07,210.79,410.48,223.33,412.24z M205.81,428.36c-12.81,8.47-19.78,20.03-25.32,32.7c-1.04,2.39,0.26,2.67,2.21,2.66
		c6.76-0.06,13.52-0.16,20.27,0.03c2.58,0.07,2.88-1.03,2.87-3.15C205.77,450.26,205.81,439.91,205.81,428.36z"/>
	<path class="st1" d="M429.69,501.29c-17.26,0-30.48-9.9-35.67-27.36c-4.05-13.62-3.33-27.3,2.27-40.32
		c6.09-14.17,17.42-21.04,32.7-21.57c15.82-0.54,28.38,5.26,35.25,19.98c7.57,16.22,7.54,33-0.42,49.07
		C456.97,494.92,445.34,501.84,429.69,501.29z M456.95,456c0.29-8.06-1.61-15.68-6.9-22.23c-12.1-14.99-32.22-13.14-41.4,3.81
		c-5.69,10.5-5.74,21.67-2.61,32.7c3.14,11.07,12.78,18.61,22.61,19.1c10.89,0.53,20.17-5.77,25.23-17.01
		C456.21,467.21,456.94,461.8,456.95,456z"/>
	<path class="st1" d="M22.12,523.43c-6.54,0-12.9,0-19.77,0c3.6-7.38,2.63-15.19,2.65-22.89c0.06-23.4,0-46.8,0.03-70.19
		c0.01-6.05,0.3-12.13-2.86-18.21c15.1,0,29.63-0.45,44.11,0.16c9.56,0.41,15.48,7.99,15.16,17.38c-0.32,9.4-7.79,17.06-17.02,17.25
		c-7.11,0.14-14.23,0.14-21.34-0.02c-2.57-0.06-3.33,0.71-3.31,3.31c0.11,21.25,0.1,42.51,0.06,63.76
		C19.81,517.27,21.36,520.12,22.12,523.43z M32.07,432.24c3.19,0,6.38-0.04,9.57,0.01c2.33,0.04,4.57-0.48,4.68-3.13
		c0.12-2.98-2.16-3.66-4.75-3.65c-6.03,0.04-12.05,0.11-18.07-0.02c-2.57-0.06-3.79,0.45-3.8,3.46c-0.01,3.09,1.35,3.51,3.87,3.37
		C26.39,432.11,29.23,432.24,32.07,432.24z"/>
	<path class="st1" d="M430.12,510.17c11.74,0,23.49,0.04,35.23-0.04c2.59-0.02,4.37,0.12,2.8,3.39c-1.52,3.16,0.09,8.1-2.8,9.69
		c-2.75,1.51-6.94,0.41-10.49,0.41c-18.68,0.01-37.37-0.09-56.05,0.09c-3.65,0.04-5.36-0.94-4.98-4.69c0.3-2.95-2.95-6.54-0.8-8.32
		c1.83-1.52,5.78-0.51,8.79-0.52C411.26,510.15,420.69,510.17,430.12,510.17z"/>
	<path class="st1" d="M379.81,510.18c-0.7,2.4-1.27,4.06-1.66,5.77c-1.74,7.67-1.72,7.67-9.35,7.67c-16.51,0-33.02-0.08-49.53,0.07
		c-3.25,0.03-4.76-0.61-4.74-4.28c0.02-2.92-2.44-7.39-1.3-8.43c2.28-2.08,6.34-0.74,9.65-0.75
		C341.7,510.14,360.51,510.18,379.81,510.18z"/>
	<path class="st1" d="M222.9,510.55c-0.5,1.85-0.87,3.2-1.22,4.56c-2.2,8.51-2.2,8.51-11.42,8.51c-15.98,0-31.95-0.07-47.93,0.06
		c-3,0.02-4.72-0.52-4.59-3.97c0.11-3.03-1.11-5.87-2.14-9.16C178.08,510.55,200.28,510.55,222.9,510.55z"/>
	<path class="st0" d="M141.8,201.91c-0.19,0.58-0.56,0.79-1.13,0.51c0.27-0.31,0.54-0.61,0.81-0.92
		C141.48,201.49,141.8,201.91,141.8,201.91z"/>
	<path class="st2" d="M237.98,229.61c0.15-11.27,7.65-19.9,17.24-19.84c9.69,0.06,17.94,9.65,17.61,20.45
		c-0.34,11.04-8.22,19.72-17.7,19.84C243.86,250.21,237.44,238.27,237.98,229.61z"/>
	<path class="st2" d="M110.43,453.88c-4.42,0-8.85-0.11-13.26,0.04c-2.44,0.08-3.43-0.57-3.39-3.24c0.04-2.61,0.5-3.85,3.48-3.79
		c8.84,0.17,17.69,0.21,26.52-0.03c3.29-0.09,3.08,1.62,3.24,3.9c0.2,2.73-0.88,3.27-3.33,3.16
		C119.28,453.74,114.85,453.88,110.43,453.88z"/>
	<path class="st2" d="M269.14,432.24c-2.67,0-5.34-0.14-8,0.04c-2.71,0.18-4.16-0.24-4.17-3.62c-0.01-3.4,1.81-3.19,4.02-3.18
		c5.87,0.03,11.73,0,17.6,0.01c2.41,0,5.06,0.14,5.08,3.3c0.02,3.04-2.41,3.5-4.94,3.46C275.54,432.2,272.34,432.24,269.14,432.24z"
		/>
	<path class="st2" d="M336.28,463.69c5.89-14.36,12.99-26.44,26.36-35.24c0,11.64-0.04,22.23,0.03,32.82
		c0.02,2.4-1.38,2.44-3.09,2.43C352.14,463.68,344.7,463.69,336.28,463.69z"/>
	<path class="st2" d="M205.81,428.36c0,11.55-0.04,21.89,0.03,32.23c0.01,2.12-0.29,3.22-2.87,3.15
		c-6.75-0.19-13.51-0.09-20.27-0.03c-1.95,0.02-3.26-0.27-2.21-2.66C186.04,448.39,193,436.83,205.81,428.36z"/>
	<path class="st2" d="M456.95,456c0,5.8-0.74,11.21-3.06,16.36c-5.06,11.24-14.34,17.54-25.23,17.01
		c-9.83-0.48-19.47-8.02-22.61-19.1c-3.13-11.03-3.08-22.19,2.61-32.7c9.18-16.95,29.3-18.81,41.4-3.81
		C455.34,440.32,457.24,447.95,456.95,456z"/>
	<path class="st2" d="M32.07,432.24c-2.84,0-5.68-0.13-8.5,0.04c-2.52,0.14-3.88-0.28-3.87-3.37c0.01-3,1.22-3.51,3.8-3.46
		c6.02,0.13,12.05,0.06,18.07,0.02c2.59-0.02,4.87,0.67,4.75,3.65c-0.11,2.65-2.34,3.17-4.68,3.13
		C38.45,432.2,35.26,432.24,32.07,432.24z"/>
</g>
</svg>
